<svg width="16" height="16" viewBox="0 0 16 16" fill="none" xmlns="http://www.w3.org/2000/svg">
<path d="M7.99331 14.6666C4.31229 14.663 1.33086 11.6766 1.33331 7.99554C1.33577 4.31451 4.32117 1.33209 8.0022 1.33331C11.6832 1.33454 14.6666 4.31895 14.6666 7.99998C14.6644 11.6836 11.6769 14.6681 7.99331 14.6666ZM2.66665 8.11464C2.69819 11.0488 5.09405 13.4063 8.02834 13.3906C10.9626 13.3748 13.333 10.9916 13.333 8.05731C13.333 5.12298 10.9626 2.73983 8.02834 2.72398C5.09405 2.70828 2.69819 5.06582 2.66665 7.99998V8.11464ZM8.66665 11.3333H7.33331V9.99998H8.66665V11.3333ZM8.66665 8.66664H7.33331V4.66664H8.66665V8.66664Z" fill="#FF8872"/>
</svg>
