<svg width="16" height="16" viewBox="0 0 16 16" fill="none" xmlns="http://www.w3.org/2000/svg">
<path d="M14.1773 13.9987H1.82198C1.58381 13.9987 1.36373 13.8716 1.24465 13.6653C1.12556 13.4591 1.12556 13.2049 1.24465 12.9987L7.42199 2.33199C7.54116 2.12607 7.76106 1.99927 7.99898 1.99927C8.23691 1.99927 8.45681 2.12607 8.57599 2.33199L14.7533 12.9987C14.8723 13.2048 14.8724 13.4588 14.7535 13.665C14.6346 13.8713 14.4147 13.9984 14.1767 13.9987H14.1773ZM7.99998 3.99866L2.97932 12.6653H13.022L7.99998 3.99866ZM8.66332 9.99933H7.32998V6.66533H8.66332V9.99933Z" fill="#FFCF43"/>
<path d="M7.33332 10.6667H8.66665V12H7.33332V10.6667Z" fill="#FFCF43"/>
</svg>
